<?xml version="1.0" encoding="utf-8"?>
<!-- Generator: Adobe Illustrator 16.0.0, SVG Export Plug-In . SVG Version: 6.00 Build 0)  -->
<!DOCTYPE svg PUBLIC "-//W3C//DTD SVG 1.1//EN" "http://www.w3.org/Graphics/SVG/1.1/DTD/svg11.dtd">
<svg version="1.1" id="Layer_1" xmlns="http://www.w3.org/2000/svg" xmlns:xlink="http://www.w3.org/1999/xlink" x="0px" y="0px"
	 width="401.5px" height="370px" viewBox="54.501 71 401.5 370" style="enable-background:new 54.501 71 401.5 370;"
	 xml:space="preserve">
<path id="blue" style="fill:#00ABBA;" d="M413.899,190.091C421.71,210.566,426,232.78,426,256c0,102.172-82.828,185-185,185
	c-102.173,0-185-82.828-185-185S138.827,71,241,71c43.287,0,83.099,14.872,114.613,39.778
	c-11.052,8.416-21.646,16.996-32.064,25.976C299.48,120.018,270.935,111,241,111c-38.73,0-75.145,15.083-102.53,42.47
	C111.084,180.857,96,217.27,96,256c0,38.73,15.083,75.145,42.47,102.529C165.857,385.916,202.27,401,241,401
	c38.729,0,75.144-15.083,102.529-42.471C370.916,331.143,386,294.73,386,256c0-9.341-0.887-18.544-2.603-27.521
	C393.555,214.745,403.652,202.041,413.899,190.091z"/>
<path id="pink" style="fill:#C5197D;" d="M265.044,361.229C337.303,231.646,387.484,165.049,456,105.257l-8.906-20.485
	c-83.084,51.692-127.781,90.637-195.425,167.402c-35.982-25.648-56.288-37.436-88.301-52.927L136,224.549
	C190.735,275.283,220.479,308.739,265.044,361.229z"/>
</svg>
